<svg width="16" height="16" viewBox="0 0 16 16" fill="none" xmlns="http://www.w3.org/2000/svg">
<path d="M9.93263 7.3635C10.7746 6.75483 11.3333 5.7715 11.3333 4.66683C11.3333 2.84283 9.82396 1.3335 7.99996 1.3335C6.17596 1.3335 4.66663 2.84283 4.66663 4.66683C4.66663 5.7895 5.24129 6.7895 6.10596 7.3955C4.12329 8.2355 2.71596 10.3055 2.66663 12.7068C2.66663 12.9855 2.79529 13.1948 2.98796 13.3342C4.52996 14.1708 6.20063 14.6582 7.99996 14.6582C9.79929 14.6582 11.534 14.1702 13.012 13.3342C13.2046 13.1948 13.3333 12.9855 13.3333 12.7068C13.3333 10.2728 11.9373 8.1815 9.93263 7.3635ZM5.66663 4.66683C5.66663 3.40216 6.73529 2.3335 7.99996 2.3335C9.26463 2.3335 10.3333 3.40216 10.3333 4.66683C10.3333 5.90616 9.30596 6.95016 8.07529 6.99216L8.06396 6.9915C8.03196 6.9915 8.00063 6.99616 7.96863 6.99683C6.71796 6.97883 5.66663 5.92083 5.66663 4.66683ZM7.99996 13.6582C6.53463 13.6582 5.07996 13.2902 3.67196 12.5648C3.79996 10.0635 5.68929 8.05216 7.96796 7.99683C7.97929 7.99683 7.98929 8.00016 7.99996 8.00016C8.02596 8.00016 8.04996 7.99283 8.07596 7.99216C10.382 7.9995 12.2646 10.0362 12.3313 12.5668C10.9992 13.2813 9.51152 13.6562 7.99996 13.6582Z" fill="#191E26"/>
</svg>
