<svg width="16" height="16" viewBox="0 0 16 16" fill="none" xmlns="http://www.w3.org/2000/svg">
<path d="M8 2C9.24256 2 10.287 2.84985 10.583 4H13.333C13.5172 4 13.6929 4.03695 13.8525 4.10449C13.9323 4.13824 14.0082 4.1796 14.0791 4.22754C14.4338 4.46711 14.6669 4.87299 14.667 5.33301V12.667C14.6668 13.4032 14.0693 14 13.333 14H2.66699C1.93072 14 1.33318 13.4032 1.33301 12.667V5.33301C1.33312 4.87299 1.56623 4.46711 1.9209 4.22754C1.99184 4.1796 2.06769 4.13824 2.14746 4.10449C2.26711 4.05387 2.39583 4.02053 2.53027 4.00684C2.57512 4.00228 2.62095 4 2.66699 4H5.41699C5.71302 2.84985 6.75744 2 8 2ZM13.667 8.74609C13.2103 9.11272 12.6313 9.33301 12 9.33301H8.66699V10C8.66699 10.3682 8.36819 10.667 8 10.667C7.63181 10.667 7.33301 10.3682 7.33301 10V9.33301H4C3.36875 9.33301 2.78975 9.11272 2.33301 8.74609V12.667C2.33318 12.8509 2.48301 13 2.66699 13H13.333C13.517 13 13.6668 12.8509 13.667 12.667V8.74609ZM2.66699 5C2.48301 5 2.33318 5.14906 2.33301 5.33301V6.66699C2.33318 7.58732 3.07963 8.33301 4 8.33301H7.33301V7.66699C7.33301 7.2988 7.63181 7 8 7C8.36819 7 8.66699 7.2988 8.66699 7.66699V8.33301H12C12.9204 8.33301 13.6668 7.58732 13.667 6.66699V5.33301C13.6668 5.14906 13.517 5 13.333 5H2.66699ZM8 3C7.32558 3 6.73145 3.40436 6.47168 4H9.52832C9.26855 3.40436 8.67442 3 8 3Z" fill="#191E26"/>
</svg>
