<svg width="18" height="18" viewBox="0 0 18 18" fill="none" xmlns="http://www.w3.org/2000/svg">
<path fill-rule="evenodd" clip-rule="evenodd" d="M1.5 8.0625C1.5 4.85234 4.10235 2.25 7.3125 2.25H10.3125C13.5227 2.25 16.125 4.85234 16.125 8.0625C16.125 11.257 13.548 13.8495 10.3596 13.8748C10.347 13.8802 10.3265 13.8896 10.2971 13.9055C10.2141 13.9504 10.1035 14.0225 9.96846 14.122C9.69992 14.3198 9.38152 14.5903 9.06949 14.8698C8.75957 15.1475 8.46572 15.4251 8.24714 15.6333C8.20863 15.67 8.17198 15.7049 8.13787 15.7375C8.07669 15.7959 8.02366 15.8465 7.98271 15.8851C7.95134 15.9148 7.92159 15.9425 7.89821 15.9633C7.88871 15.9718 7.86943 15.9888 7.84781 16.0054L7.84711 16.006C7.8406 16.011 7.80575 16.038 7.75849 16.0623L7.75766 16.0628C7.7468 16.0687 7.64468 16.124 7.50506 16.1254C7.41692 16.1263 7.24543 16.1052 7.10065 15.96C6.95726 15.8162 6.93638 15.6469 6.93638 15.5625V13.863C3.90154 13.6692 1.5 11.1463 1.5 8.0625ZM8.06139 14.2655C8.14494 14.1888 8.23119 14.1104 8.31885 14.0319C8.63971 13.7445 8.98946 13.4458 9.30136 13.2161C9.4565 13.1019 9.61422 12.9958 9.76218 12.9158C9.88671 12.8485 10.0909 12.75 10.3125 12.75C12.9013 12.75 15 10.6513 15 8.0625C15 5.47367 12.9013 3.375 10.3125 3.375H7.3125C4.72367 3.375 2.625 5.47367 2.625 8.0625C2.625 10.6513 4.7237 12.75 7.31254 12.75H8.06139V14.2655Z" fill="#191E26"/>
</svg>
