<svg width="16" height="16" viewBox="0 0 16 16" fill="none" xmlns="http://www.w3.org/2000/svg">
<path fill-rule="evenodd" clip-rule="evenodd" d="M14.0137 2.40433C14.7947 3.18538 14.7947 4.45171 14.0137 5.23276L7.20273 12.0437C6.797 12.4495 6.30872 12.7631 5.77105 12.9635L3.10361 13.9575C2.84485 14.0539 2.55692 13.9223 2.46049 13.6636C2.41852 13.5509 2.41852 13.427 2.46049 13.3144L3.45451 10.6469C3.65487 10.1093 3.96856 9.62099 4.37429 9.21525L11.1853 2.40433C11.9663 1.62328 13.2326 1.62328 14.0137 2.40433ZM5.42186 12.0265C5.78744 11.8902 6.12256 11.6841 6.40871 11.4201L4.99792 10.0093C4.73388 10.2955 4.52779 10.6306 4.39156 10.9961L4.06698 11.8671L4.55085 12.351L5.42186 12.0265ZM12.0465 5.78572L7.11753 10.7147L5.70332 9.30045L10.6323 4.37151L12.0465 5.78572ZM12.7536 5.07862L13.3065 4.52565C13.6971 4.13512 13.6971 3.50196 13.3065 3.11144C12.916 2.72091 12.2829 2.72091 11.8923 3.11144L11.3394 3.6644L12.7536 5.07862Z" fill="#191E26"/>
<path fill-rule="evenodd" clip-rule="evenodd" d="M4.54725 2.02123C4.55211 2.00706 4.55623 1.99252 4.55681 1.97755C4.56064 1.87805 4.48086 1.79248 4.37833 1.79248H3.00052C2.82777 1.79248 2.67978 1.91613 2.64907 2.08613L2.07671 4.24567C2.03713 4.46478 2.20551 4.6663 2.42817 4.6663H3.06078C3.29002 4.6663 3.4599 4.8792 3.40902 5.10272L2.94883 7.12415C2.90429 7.3198 3.16651 7.42884 3.27383 7.2593L5.3424 3.99164C5.49294 3.75385 5.32208 3.44347 5.04064 3.44347H4.55455C4.34948 3.44347 4.18993 3.27234 4.19758 3.07332C4.19873 3.0434 4.20699 3.01431 4.2167 2.98598L4.54725 2.02123Z" fill="#191E26"/>
</svg>
