<svg width="16" height="15" viewBox="0 0 16 15" fill="none" xmlns="http://www.w3.org/2000/svg">
<path fill-rule="evenodd" clip-rule="evenodd" d="M11.789 11.4611H10.1219V8.85051C10.1219 8.22802 10.11 7.42709 9.255 7.42709C8.38627 7.42709 8.25377 8.10521 8.25377 8.80551V11.4611H6.58724V6.09274H8.1869V6.82617H8.20971C8.43221 6.40399 8.97688 5.95899 9.78875 5.95899C11.4768 5.95899 11.789 7.07054 11.789 8.51645V11.4611ZM4.70602 5.35869C4.16978 5.35869 3.73791 4.92495 3.73791 4.3909C3.73791 3.85747 4.16978 3.42372 4.70602 3.42372C5.23976 3.42372 5.67319 3.85747 5.67319 4.3909C5.67319 4.92495 5.23976 5.35869 4.70602 5.35869V5.35869ZM3.87041 11.4611H5.54069V6.09274H3.87041V11.4611ZM12.6199 1.875H3.03292C2.57543 1.875 2.20325 2.23812 2.20325 2.68561V12.3133C2.20325 12.7611 2.57543 13.1248 3.03292 13.1248H12.6199C13.0787 13.1248 13.4534 12.7611 13.4534 12.3133V2.68561C13.4534 2.23812 13.0787 1.875 12.6199 1.875V1.875Z" fill="#0E1318"/>
</svg>
