<svg width="15" height="15" viewBox="0 0 15 15" fill="none" xmlns="http://www.w3.org/2000/svg">
<path fill-rule="evenodd" clip-rule="evenodd" d="M7.5 1.875C5.97211 1.875 5.78086 1.88203 5.18109 1.90875C4.58203 1.93688 4.17422 2.03109 3.81563 2.17031C3.44578 2.31375 3.13148 2.50641 2.8193 2.8193C2.50641 3.13148 2.31305 3.44508 2.17031 3.81563C2.03109 4.17422 1.93617 4.58203 1.90875 5.18109C1.88062 5.78086 1.875 5.97211 1.875 7.5C1.875 9.02789 1.88203 9.21914 1.90875 9.81891C1.93688 10.418 2.03109 10.8265 2.17031 11.1844C2.31375 11.5542 2.50641 11.8685 2.8193 12.1807C3.13148 12.4936 3.44508 12.687 3.81563 12.8297C4.17422 12.9689 4.58203 13.0638 5.18109 13.0912C5.78086 13.1194 5.97211 13.125 7.5 13.125C9.02789 13.125 9.21914 13.118 9.81891 13.0912C10.418 13.0631 10.8265 12.9689 11.1844 12.8297C11.5542 12.6863 11.8685 12.4936 12.1807 12.1807C12.4936 11.8685 12.687 11.5549 12.8297 11.1844C12.9689 10.8258 13.0638 10.418 13.0912 9.81891C13.1194 9.21914 13.125 9.02789 13.125 7.5C13.125 5.97211 13.118 5.78086 13.0912 5.18109C13.0631 4.58203 12.9689 4.17352 12.8297 3.81563C12.6863 3.44578 12.4936 3.13148 12.1807 2.8193C11.8685 2.50641 11.5549 2.31305 11.1844 2.17031C10.8258 2.03109 10.418 1.93617 9.81891 1.90875C9.21914 1.88062 9.02789 1.875 7.5 1.875ZM7.5 2.8875C9.00188 2.8875 9.18047 2.89453 9.7732 2.92125C10.3216 2.94656 10.6191 3.03797 10.8173 3.11531C11.0803 3.21727 11.2673 3.33891 11.4642 3.53578C11.6611 3.73266 11.7827 3.91969 11.8847 4.18266C11.962 4.38094 12.0534 4.67836 12.0788 5.2268C12.1055 5.82023 12.1118 5.99813 12.1118 7.5C12.1118 9.00188 12.1048 9.18047 12.0766 9.7732C12.0485 10.3216 11.9571 10.6191 11.8798 10.8173C11.7743 11.0803 11.6548 11.2673 11.4579 11.4642C11.261 11.6611 11.0712 11.7827 10.811 11.8847C10.6141 11.962 10.3118 12.0534 9.76336 12.0788C9.1657 12.1055 8.98992 12.1118 7.48523 12.1118C5.98055 12.1118 5.80477 12.1048 5.20711 12.0766C4.65867 12.0485 4.35633 11.9571 4.15945 11.8798C3.89227 11.7743 3.70945 11.6548 3.51258 11.4579C3.3157 11.261 3.18914 11.0712 3.0907 10.811C3.01336 10.6141 2.92195 10.3118 2.89383 9.76336C2.87273 9.17273 2.8657 8.98992 2.8657 7.49227C2.8657 5.99461 2.87273 5.8118 2.89383 5.21414C2.92195 4.6657 3.01336 4.36336 3.0907 4.16648C3.18914 3.8993 3.3157 3.71648 3.51258 3.51961C3.70945 3.32273 3.89227 3.19617 4.15945 3.09773C4.35633 3.02039 4.65164 2.92898 5.20008 2.90086C5.79773 2.87977 5.97352 2.87273 7.4782 2.87273L7.5 2.8875ZM7.5 4.61156C5.90391 4.61156 4.61156 5.90531 4.61156 7.5C4.61156 9.09609 5.90531 10.3884 7.5 10.3884C9.09609 10.3884 10.3884 9.09469 10.3884 7.5C10.3884 5.90391 9.09469 4.61156 7.5 4.61156V4.61156ZM7.5 9.37523C6.4643 9.37523 5.62477 8.5357 5.62477 7.5C5.62477 6.4643 6.4643 5.62477 7.5 5.62477C8.5357 5.62477 9.37523 6.4643 9.37523 7.5C9.37523 8.5357 8.5357 9.37523 7.5 9.37523ZM11.1773 4.49766C11.1773 4.87031 10.875 5.17266 10.5023 5.17266C10.1297 5.17266 9.82734 4.87031 9.82734 4.49766C9.82734 4.125 10.1297 3.82266 10.5023 3.82266C10.875 3.82266 11.1773 4.125 11.1773 4.49766Z" fill="#0E1318"/>
</svg>
